<svg width="778" height="787" xmlns="http://www.w3.org/2000/svg" xmlns:xlink="http://www.w3.org/1999/xlink" overflow="hidden"><defs><clipPath id="clip0"><path d="M94-12 872-12 872 775 94 775Z" fill-rule="evenodd" clip-rule="evenodd"/></clipPath></defs><g clip-path="url(#clip0)" transform="translate(-94 12)"><text font-family="Engravers MT,Engravers MT_MSFontService,sans-serif" font-weight="500" font-stretch="expanded" font-size="173" transform="translate(386.907 208)">G<tspan x="19" y="320">s</tspan><tspan x="15.3333" y="112">e</tspan><tspan x="10.8334" y="421">t</tspan><tspan x="228.767" y="221">t</tspan><tspan x="-188.356" y="221">s</tspan><tspan x="-87.1388" y="221">a</tspan><tspan x="39.8819" y="221">I</tspan><tspan x="116.028" y="221">n</tspan></text><path d="M163 360C163 184.926 304.926 43 480 43 655.074 43 797 184.926 797 360 797 535.074 655.074 677 480 677 304.926 677 163 535.074 163 360Z" stroke="#000000" stroke-width="4" stroke-miterlimit="8" fill="none" fill-rule="evenodd"/><path d="M154 360C154 179.955 299.955 34 480 34 660.045 34 806 179.955 806 360 806 540.045 660.045 686 480 686 299.955 686 154 540.045 154 360Z" stroke="#000000" stroke-width="4" stroke-miterlimit="8" fill="none" fill-rule="evenodd"/></g></svg>