<svg width="445" height="698" xmlns="http://www.w3.org/2000/svg" xmlns:xlink="http://www.w3.org/1999/xlink" overflow="hidden"><defs><clipPath id="clip0"><path d="M498 26 943 26 943 724 498 724Z" fill-rule="evenodd" clip-rule="evenodd"/></clipPath></defs><g clip-path="url(#clip0)" transform="translate(-498 -26)"><text font-family="Engravers MT,Engravers MT_MSFontService,sans-serif" font-weight="500" font-stretch="expanded" font-size="96" transform="translate(667.358 384)">G<tspan x="10.5" y="195">s</tspan><tspan x="8.49994" y="65">e</tspan><tspan x="7" y="260">t</tspan><tspan x="132.815" y="129">t</tspan><tspan x="-110.62" y="129">s</tspan><tspan x="-51.2945" y="129">a</tspan><tspan x="21.7153" y="129">I</tspan><tspan x="56.6185" y="129">n</tspan><tspan font-size="101" x="4.3454" y="-229">Z</tspan><tspan x="7.39532" y="-164">E</tspan><tspan x="21.3954" y="-102">I</tspan><tspan x="5.00616" y="-40">T</tspan><tspan font-size="32" x="-70.3251" y="186">o</tspan><tspan font-size="32" x="-48.2296" y="186">F</tspan><tspan font-size="32" x="116.25" y="186">T</tspan><tspan font-size="32" x="135.806" y="185">H</tspan><tspan font-size="32" x="162.869" y="185">E</tspan></text><path d="M656.5 537.5 656.5 662.783" stroke="#000000" stroke-width="3" stroke-miterlimit="8" fill="none" fill-rule="evenodd"/><path d="M0 0 122.756 0.000104987" stroke="#000000" stroke-width="3" stroke-miterlimit="8" fill="none" fill-rule="evenodd" transform="matrix(-1 -8.74228e-08 -8.74228e-08 1 777.256 661.5)"/><path d="M778.5 61.5001 778.5 428.65" stroke="#000000" stroke-width="3" stroke-miterlimit="8" fill="none" fill-rule="evenodd"/><path d="M658.5 61.5001 658.5 428.65" stroke="#000000" stroke-width="3" stroke-miterlimit="8" fill="none" fill-rule="evenodd"/><path d="M777.5 537.5 777.5 662.783" stroke="#000000" stroke-width="3" stroke-miterlimit="8" fill="none" fill-rule="evenodd"/><path d="M775.5 537.5 903.898 537.5" stroke="#000000" stroke-width="3" stroke-miterlimit="8" fill="none" fill-rule="evenodd"/><path d="M776.5 428.5 904.898 428.5" stroke="#000000" stroke-width="3" stroke-miterlimit="8" fill="none" fill-rule="evenodd"/><path d="M0 0 0.000104987 111.36" stroke="#000000" stroke-width="3" stroke-miterlimit="8" fill="none" fill-rule="evenodd" transform="matrix(-1 -8.74228e-08 -8.74228e-08 1 903.5 427.5)"/><path d="M0 0 0.000104987 111.36" stroke="#000000" stroke-width="3" stroke-miterlimit="8" fill="none" fill-rule="evenodd" transform="matrix(-1 -8.74228e-08 -8.74228e-08 1 531.5 427.5)"/><path d="M529.5 537.5 657.898 537.5" stroke="#000000" stroke-width="3" stroke-miterlimit="8" fill="none" fill-rule="evenodd"/><path d="M531.5 428.5 659.898 428.5" stroke="#000000" stroke-width="3" stroke-miterlimit="8" fill="none" fill-rule="evenodd"/><path d="M0 0 122.756 0.000104987" stroke="#000000" stroke-width="3" stroke-miterlimit="8" fill="none" fill-rule="evenodd" transform="matrix(-1 -8.74228e-08 -8.74228e-08 1 779.256 61.5001)"/></g></svg>